<svg xmlns="http://www.w3.org/2000/svg" width="132" height="32" fill="none"><path fill="#363330" d="M125.907 11.628h-4.561V9.97h4.561c.879 0 1.594-.132 2.146-.394.563-.273.98-.707 1.25-1.3.27-.604.405-1.396.405-2.376 0-.992-.135-1.785-.405-2.377-.27-.593-.687-1.02-1.25-1.283-.552-.274-1.267-.41-2.146-.41h-4.561V.17h4.561c1.183 0 2.196.235 3.041.702a4.727 4.727 0 0 1 1.977 1.967c.473.855.709 1.875.709 3.06 0 1.186-.236 2.207-.709 3.062a4.834 4.834 0 0 1-1.977 1.983c-.845.456-1.858.684-3.041.684zm-3.345 0h-1.807V.171h1.807v11.457zm-9.168.172c-1.183 0-2.219-.24-3.109-.719a5.283 5.283 0 0 1-2.061-2.052c-.484-.89-.726-1.932-.726-3.13 0-1.196.242-2.234.726-3.112a5.137 5.137 0 0 1 2.061-2.052c.89-.49 1.926-.735 3.109-.735 1.205 0 2.247.245 3.125.735a5.023 5.023 0 0 1 2.044 2.052c.496.878.743 1.916.743 3.113s-.247 2.24-.743 3.13a5.163 5.163 0 0 1-2.044 2.051c-.878.48-1.92.719-3.125.719zm0-1.779c.889 0 1.627-.143 2.213-.428a2.854 2.854 0 0 0 1.334-1.35c.293-.616.44-1.397.44-2.343 0-.958-.147-1.739-.44-2.343a2.77 2.77 0 0 0-1.334-1.334c-.586-.296-1.324-.445-2.213-.445-.89 0-1.633.149-2.23.445a2.79 2.79 0 0 0-1.318 1.334c-.281.604-.422 1.385-.422 2.343 0 .946.141 1.727.422 2.343a2.876 2.876 0 0 0 1.318 1.35c.597.285 1.34.428 2.23.428zM100.576 11.8c-1.182 0-2.218-.24-3.108-.719a5.277 5.277 0 0 1-2.06-2.052c-.485-.89-.727-1.932-.727-3.13 0-1.196.242-2.234.726-3.112A5.13 5.13 0 0 1 97.468.735c.89-.49 1.926-.735 3.108-.735 1.205 0 2.247.245 3.126.735a5.029 5.029 0 0 1 2.044 2.052c.495.878.743 1.916.743 3.113s-.248 2.24-.743 3.13a5.17 5.17 0 0 1-2.044 2.051c-.879.48-1.921.719-3.126.719zm0-1.779c.89 0 1.628-.143 2.213-.428a2.86 2.86 0 0 0 1.335-1.35c.293-.616.439-1.397.439-2.343 0-.958-.146-1.739-.439-2.343a2.776 2.776 0 0 0-1.335-1.334c-.585-.296-1.323-.445-2.213-.445-.89 0-1.633.149-2.23.445a2.79 2.79 0 0 0-1.317 1.334c-.282.604-.422 1.385-.422 2.343 0 .946.14 1.727.422 2.343a2.876 2.876 0 0 0 1.318 1.35c.596.285 1.34.428 2.229.428zm-18.373 1.607h-2.687L76.526.171h2.028l1.84 7.25.508 2.429h.135l.608-2.428L83.925.17h2.653l2.432 7.25.642 2.429h.136l.473-2.428L91.95.17h1.993l-2.838 11.457H88.42L86.14 4.96l-.828-2.941h-.152l-.811 2.941-2.145 6.67zm-16.608 0H63.77V.171h1.825v11.457zm7.23 0h-8.497V9.97h8.497v1.658zm-.253-4.942h-8.244V5.045h8.244v1.641zm.253-4.856h-8.497V.17h8.497v1.66zm-10.76 9.798h-1.807V.171h1.807v11.457zm-8.463 0h-1.825V.171h1.825v11.457zm7.551-4.942H52.37V5.027h8.784v1.66zm-14.886 4.942H44.46V.171h1.807v11.457zM50.71 1.83H40V.17h10.71v1.66zM127.253 32c-1.115 0-2.055-.159-2.821-.478-.754-.32-1.323-.77-1.706-1.351-.383-.593-.574-1.288-.574-2.086v-.103h1.824v.274c0 .456.101.837.304 1.145.203.297.541.525 1.014.684.473.149 1.126.223 1.959.223.721 0 1.296-.052 1.724-.154.427-.114.732-.285.912-.513.191-.24.287-.536.287-.89 0-.501-.158-.866-.473-1.094-.315-.228-.828-.41-1.537-.547l-2.771-.462a7.005 7.005 0 0 1-1.689-.547 3.048 3.048 0 0 1-1.166-.992c-.27-.422-.405-.946-.405-1.573 0-.41.09-.815.27-1.214.18-.4.462-.758.845-1.078.383-.319.878-.57 1.486-.752.62-.194 1.374-.29 2.264-.29 1.104 0 2.01.17 2.72.512.709.342 1.233.81 1.571 1.402.349.582.524 1.249.524 2.001v.103h-1.808v-.223c0-.467-.101-.855-.304-1.162-.203-.32-.535-.553-.997-.701-.462-.16-1.087-.24-1.875-.24-.687 0-1.244.057-1.672.171-.417.114-.721.285-.913.513-.191.217-.287.502-.287.855 0 .32.068.582.203.787.135.205.343.37.625.496.282.114.642.222 1.081.325l2.754.479c.754.136 1.379.341 1.875.615.507.274.884.621 1.132 1.043.248.422.371.912.371 1.47 0 .582-.163 1.13-.489 1.643-.327.513-.84.929-1.538 1.248-.698.308-1.605.462-2.72.462zm-14.273-.17h-1.825V20.371h5.879c.856 0 1.594.131 2.213.393.631.263 1.109.645 1.436 1.146.338.502.507 1.112.507 1.83 0 .638-.135 1.186-.406 1.642a2.719 2.719 0 0 1-1.148 1.077c-.496.262-1.098.416-1.808.462v.12c.439.113.777.301 1.014.564.247.25.473.558.675.923l1.892 3.3h-2.094l-1.808-3.163a2.788 2.788 0 0 0-.557-.735 1.587 1.587 0 0 0-.727-.41c-.293-.092-.681-.138-1.165-.138h-2.078v4.447zm0-9.8v3.934h4.037c.755 0 1.324-.148 1.706-.445.383-.296.575-.803.575-1.522 0-.695-.192-1.197-.575-1.504-.382-.308-.951-.462-1.706-.462h-4.037zm-10.477 9.8h-1.824V20.371h1.824V31.83zm7.23 0h-8.497v-1.66h8.497v1.66zm-.253-4.943h-8.244v-1.641h8.244v1.641zm.253-4.856h-8.497v-1.659h8.497v1.659zM98.974 31.83h-1.808V20.371h1.808V31.83zm-8.464 0h-1.825V20.371h1.825V31.83zm7.551-4.943h-8.784V25.23h8.784v1.658zM83.175 31.83h-1.808V20.371h1.808V31.83zm4.443-9.8h-10.71v-1.658h10.71v1.659zM70.288 32c-1.182 0-2.218-.239-3.108-.718a5.276 5.276 0 0 1-2.061-2.052c-.484-.889-.726-1.932-.726-3.13 0-1.196.242-2.234.726-3.111a5.13 5.13 0 0 1 2.061-2.053c.89-.49 1.926-.735 3.108-.735 1.205 0 2.247.245 3.126.735a5.021 5.021 0 0 1 2.044 2.053c.495.877.743 1.915.743 3.112s-.248 2.24-.743 3.13a5.161 5.161 0 0 1-2.044 2.051c-.879.48-1.92.719-3.126.719zm0-1.778c.89 0 1.628-.142 2.213-.427a2.86 2.86 0 0 0 1.335-1.351c.293-.616.44-1.397.44-2.343 0-.958-.147-1.739-.44-2.343a2.775 2.775 0 0 0-1.335-1.334c-.585-.296-1.323-.444-2.213-.444-.89 0-1.633.148-2.23.444a2.79 2.79 0 0 0-1.317 1.334c-.282.604-.423 1.385-.423 2.343 0 .946.141 1.727.423 2.343a2.877 2.877 0 0 0 1.317 1.35c.597.286 1.34.428 2.23.428zM55.205 31.83h-1.824V20.371h5.879c.856 0 1.593.131 2.213.393.63.263 1.109.645 1.436 1.146.337.502.506 1.112.506 1.83 0 .638-.135 1.186-.405 1.642a2.716 2.716 0 0 1-1.149 1.077c-.495.262-1.098.416-1.807.462v.12c.439.113.777.301 1.013.564.248.25.473.558.676.923l1.892 3.3H61.54l-1.807-3.163a2.77 2.77 0 0 0-.558-.735 1.583 1.583 0 0 0-.726-.41c-.293-.092-.681-.138-1.166-.138h-2.078v4.447zm0-9.8v3.934h4.038c.754 0 1.323-.148 1.706-.445.383-.296.574-.803.574-1.522 0-.695-.191-1.197-.574-1.504-.383-.308-.952-.462-1.706-.462h-4.038zm-6.637 9.8h-6.572V20.371h6.335c.732 0 1.351.108 1.858.325.518.217.913.536 1.183.958.281.421.422.934.422 1.539 0 .672-.197 1.242-.591 1.71-.383.467-1.008.752-1.875.855v.12c.968.113 1.69.421 2.162.923.473.49.71 1.111.71 1.864 0 .65-.141 1.214-.423 1.693a2.71 2.71 0 0 1-1.233 1.094c-.54.251-1.2.377-1.976.377zm-4.764-5.13v3.47h4.56c.677 0 1.178-.136 1.504-.41.338-.285.507-.735.507-1.35 0-.605-.169-1.038-.507-1.3-.326-.274-.827-.41-1.503-.41h-4.561zm0-4.67v3.147h4.274c.642 0 1.12-.125 1.436-.376.315-.262.473-.661.473-1.197s-.152-.929-.456-1.18c-.305-.262-.772-.393-1.403-.393h-4.324z"/><path fill="#0D0D0C" fill-rule="evenodd" d="M16.001 17.751a1.75 1.75 0 1 0 0-3.5 1.75 1.75 0 0 0 0 3.5zm0 .25a2 2 0 1 0 0-4 2 2 0 0 0 0 4z" clip-rule="evenodd"/><path fill="#0D0D0C" fill-rule="evenodd" d="M16 19.749a3.75 3.75 0 1 0 0-7.5 3.75 3.75 0 0 0 0 7.5zm0 .25a4 4 0 1 0 0-8 4 4 0 0 0 0 8z" clip-rule="evenodd"/><path fill="#0D0D0C" fill-rule="evenodd" d="M15.999 21.75a5.75 5.75 0 1 0 0-11.5 5.75 5.75 0 0 0 0 11.5zm0 .25a6 6 0 1 0 0-12 6 6 0 0 0 0 12z" clip-rule="evenodd"/><path fill="#0D0D0C" fill-rule="evenodd" d="M15.999 23.75a7.75 7.75 0 1 0 0-15.5 7.75 7.75 0 0 0 0 15.5zm0 .25a8 8 0 1 0 0-16 8 8 0 0 0 0 16z" clip-rule="evenodd"/><path fill="#0D0D0C" fill-rule="evenodd" d="M15.999 25.749c5.385 0 9.75-4.365 9.75-9.75s-4.365-9.75-9.75-9.75-9.75 4.365-9.75 9.75 4.365 9.75 9.75 9.75zm0 .25c5.523 0 10-4.477 10-10s-4.477-10-10-10-10 4.477-10 10 4.477 10 10 10z" clip-rule="evenodd"/><path fill="#0D0D0C" fill-rule="evenodd" d="M15.999 27.749c6.49 0 11.75-5.26 11.75-11.75s-5.26-11.75-11.75-11.75-11.75 5.26-11.75 11.75 5.26 11.75 11.75 11.75zm0 .25c6.627 0 12-5.373 12-12s-5.373-12-12-12-12 5.373-12 12 5.373 12 12 12z" clip-rule="evenodd"/><path fill="#0D0D0C" fill-rule="evenodd" d="M16 29.75c7.594 0 13.75-6.156 13.75-13.75S23.594 2.25 16 2.25 2.25 8.406 2.25 16 8.406 29.75 16 29.75zm0 .25c7.732 0 14-6.268 14-14S23.732 2 16 2 2 8.268 2 16s6.268 14 14 14z" clip-rule="evenodd"/><path fill="#0D0D0C" fill-rule="evenodd" d="M16 31.75c8.698 0 15.75-7.052 15.75-15.75S24.698.25 16 .25.25 7.302.25 16 7.302 31.75 16 31.75zm0 .25c8.837 0 16-7.163 16-16S24.837 0 16 0 0 7.163 0 16s7.163 16 16 16z" clip-rule="evenodd"/></svg>